<svg width="346" height="475" viewBox="0 0 346 475" fill="none" xmlns="http://www.w3.org/2000/svg">
<g clip-path="url(#clip0_4487_38921)">
<g filter="url(#filter0_b_4487_38921)">
<circle cx="169.317" cy="260.648" r="234.344" fill="#EAECFE"/>
</g>
<g filter="url(#filter1_b_4487_38921)">
<circle cx="169.899" cy="261.23" r="152.353" fill="#DADEFE"/>
</g>
<g style="mix-blend-mode:multiply">
<rect width="596.618" height="475.666" transform="translate(-124.729 100.736)" fill="url(#paint0_linear_4487_38921)"/>
</g>
<g filter="url(#filter2_dd_4487_38921)">
<g clip-path="url(#clip1_4487_38921)">
<rect x="68.9248" y="161.062" width="216.016" height="157.738" rx="6.29839" fill="white"/>
<rect width="216.318" height="16.282" transform="translate(68.3301 161.212)" fill="#11213D"/>
</g>
</g>
<rect x="232.26" y="308.857" width="8.54738" height="8.54738" rx="1.39964" fill="#1F2937"/>
<g clip-path="url(#clip2_4487_38921)">
<path fill-rule="evenodd" clip-rule="evenodd" d="M234.955 310.399C234.982 310.378 235.015 310.366 235.049 310.365H237.276C237.312 310.366 237.348 310.374 237.381 310.389C237.413 310.404 237.442 310.426 237.466 310.453L238.615 311.768C238.652 311.811 238.672 311.866 238.672 311.923C238.672 311.98 238.652 312.035 238.615 312.079L237.52 313.324C237.492 313.357 237.451 313.378 237.407 313.382C237.363 313.387 237.319 313.374 237.285 313.346C237.276 313.34 237.269 313.332 237.262 313.324L234.935 310.605C234.922 310.59 234.913 310.573 234.907 310.554C234.901 310.536 234.899 310.517 234.901 310.498C234.903 310.478 234.909 310.46 234.918 310.443C234.927 310.426 234.94 310.411 234.955 310.399ZM233.45 311.709L234.233 310.801L234.232 310.8C234.248 310.782 234.267 310.768 234.289 310.758C234.311 310.748 234.335 310.743 234.359 310.743C234.398 310.743 234.436 310.756 234.466 310.781C234.473 310.787 234.48 310.794 234.486 310.802L236.936 313.678C236.961 313.707 236.975 313.744 236.975 313.782C236.975 313.821 236.961 313.858 236.936 313.887L236.102 314.839C236.044 314.908 235.959 314.908 235.889 314.85C235.881 314.843 235.874 314.837 235.868 314.829L233.45 312.023C233.412 311.979 233.391 311.923 233.391 311.866C233.391 311.808 233.412 311.752 233.45 311.709Z" fill="#FD454D"/>
</g>
<rect x="160.061" y="200.845" width="114.771" height="30.7921" rx="6.29839" stroke="#DBE0E9" stroke-width="0.699821" stroke-dasharray="4.02 4.02"/>
<rect x="160.41" y="243.882" width="114.071" height="66.483" rx="5.94848" fill="#F2F5FE" stroke="#4181F2" stroke-width="0.699821" stroke-dasharray="4.58 4.58"/>
<path d="M213.591 273.164C213.299 273.164 213.09 272.934 213.09 272.663C213.09 272.371 213.299 272.141 213.591 272.141H220.605C220.876 272.141 221.106 272.371 221.106 272.663C221.106 272.934 220.876 273.164 220.605 273.164H213.591ZM214.781 277.84C214.593 278.027 214.28 278.048 214.071 277.86C213.862 277.673 213.862 277.339 214.05 277.151L216.722 274.291C216.91 274.103 217.265 274.103 217.453 274.291L220.125 277.151C220.312 277.339 220.312 277.673 220.104 277.86C219.999 277.944 219.874 277.986 219.77 277.986C219.624 277.986 219.498 277.944 219.394 277.84L217.599 275.919V280.991C217.599 281.284 217.369 281.492 217.098 281.492C216.806 281.492 216.597 281.284 216.597 280.991V275.919L214.781 277.84Z" fill="#4181F2"/>
<rect x="99.8779" y="200.845" width="48.9875" height="109.872" rx="6.29839" stroke="#DBE0E9" stroke-width="0.699821" stroke-dasharray="4.02 4.02"/>
<g filter="url(#filter3_dd_4487_38921)">
<rect x="41.7295" y="219.339" width="62.9398" height="113.447" rx="6.29839" fill="white"/>
<rect x="42.0794" y="219.689" width="62.24" height="112.747" rx="5.94848" stroke="#F3F4F6" stroke-width="0.699821"/>
</g>
<g clip-path="url(#clip3_4487_38921)">
<rect x="69.7031" y="233.327" width="6.99331" height="85.4738" rx="3.49665" fill="#ECF1F9"/>
<rect x="69.7019" y="293.38" width="7.47923" height="25.1936" rx="3.73961" fill="#4181F2"/>
</g>
<g clip-path="url(#clip4_4487_38921)">
<rect x="86.0195" y="233.327" width="6.99331" height="85.4738" rx="3.49665" fill="#ECF1F9"/>
<rect x="86.0193" y="255.59" width="7.47923" height="62.9839" rx="3.73961" fill="#4181F2"/>
</g>
<g clip-path="url(#clip5_4487_38921)">
<rect x="53.3855" y="233.327" width="6.99331" height="85.4738" rx="3.49665" fill="#ECF1F9"/>
<rect x="53.3857" y="267.488" width="7.47923" height="51.087" rx="3.73961" fill="#4181F2"/>
</g>
<g filter="url(#filter4_dd_4487_38921)">
<rect width="127.434" height="73.0412" rx="6.29839" transform="matrix(0.978482 -0.206331 0.206066 0.978538 166.833 291.608)" fill="white"/>
<rect x="0.414486" y="0.270203" width="126.734" height="72.3414" rx="5.94848" transform="matrix(0.978482 -0.206331 0.206066 0.978538 166.786 291.699)" stroke="#F3F4F6" stroke-width="0.699821"/>
</g>
<circle cx="5.82776" cy="5.82776" r="5.82776" transform="matrix(0.978482 -0.206331 0.206066 0.978538 283.39 321.133)" fill="#CFD9EB"/>
<circle cx="8.93589" cy="8.93589" r="8.93589" transform="matrix(0.978482 -0.206331 0.206066 0.978538 267.073 278.395)" fill="#1F2937"/>
<path d="M276.495 280.912C276.616 280.835 276.763 280.804 276.904 280.826L280.892 281.625C281.141 281.675 281.323 281.893 281.326 282.148C281.328 282.404 281.151 282.613 280.889 282.668L280.917 282.799C280.965 283.028 280.836 283.226 280.608 283.274L274.077 284.651C273.865 284.696 273.651 284.57 273.603 284.341L273.575 284.21C273.33 284.262 273.083 284.143 272.983 283.908C272.882 283.673 272.961 283.4 273.169 283.253L276.495 280.912ZM277.138 282.912C277.416 282.853 277.613 282.573 277.551 282.278C277.492 282 277.195 281.806 276.918 281.865C276.624 281.927 276.447 282.22 276.506 282.499C276.568 282.793 276.844 282.974 277.138 282.912ZM276.024 288.068L276.677 287.93L276.016 284.789L277.061 284.568L277.722 287.71L278.522 287.541L277.861 284.4L278.906 284.179L279.567 287.321L280.22 287.183L279.559 284.042L280.604 283.821L281.282 287.044C281.282 287.044 281.299 287.041 281.302 287.057L282.196 287.415C282.42 287.505 282.55 287.717 282.532 287.96C282.512 288.186 282.347 288.375 282.118 288.423L274.788 289.969C274.559 290.017 274.332 289.911 274.222 289.712C274.109 289.497 274.142 289.251 274.31 289.078L274.984 288.39C274.98 288.373 274.997 288.37 274.997 288.37L274.318 285.147L275.363 284.927L276.024 288.068Z" fill="white"/>
<rect width="13.2096" height="13.2096" rx="2.79929" transform="matrix(0.978482 -0.206331 0.206066 0.978538 180.049 321.912)" fill="#4181F2"/>
<rect width="55.1694" height="6.99331" rx="2.79929" transform="matrix(0.978482 -0.206331 0.206066 0.978538 185.487 348.332)" fill="#ECF1F9"/>
<rect width="36.5206" height="6.99331" rx="2.79929" transform="matrix(0.978482 -0.206331 0.206066 0.978538 183.155 339.007)" fill="#CFD9EB"/>
<g filter="url(#filter5_dd_4487_38921)">
<rect x="173.825" y="175.826" width="131.319" height="34.1895" rx="6.29839" fill="white"/>
<rect x="174.175" y="176.176" width="130.619" height="33.4897" rx="5.94848" stroke="#F3F4F6" stroke-width="0.699821"/>
<rect x="182.924" y="184.706" width="15.3961" height="15.3961" rx="7.69804" fill="#AAF2CE"/>
<path d="M192.592 194.192C192.47 194.19 192.358 194.137 192.276 194.055C192.183 193.962 192.131 193.85 192.128 193.729L192.092 191.603L189.048 194.647C188.869 194.826 188.575 194.811 188.4 194.636C188.236 194.471 188.21 194.167 188.389 193.988L191.433 190.944L189.297 190.897C189.044 190.903 188.828 190.687 188.834 190.434C188.819 190.181 189.028 189.972 189.281 189.986L192.52 190.042C192.773 190.036 192.989 190.253 192.983 190.506L193.039 193.744C193.054 193.998 192.845 194.206 192.592 194.192Z" fill="#1B8751"/>
<rect x="202.137" y="184.706" width="16.7957" height="6.29839" rx="2.79929" fill="#CFD9EB"/>
<rect x="202.137" y="194.057" width="25.1936" height="6.29839" rx="2.79929" fill="#ECF1F9"/>
</g>
</g>
<defs>
<filter id="filter0_b_4487_38921" x="-275.992" y="-184.661" width="890.618" height="890.618" filterUnits="userSpaceOnUse" color-interpolation-filters="sRGB">
<feFlood flood-opacity="0" result="BackgroundImageFix"/>
<feGaussianBlur in="BackgroundImageFix" stdDeviation="105.482"/>
<feComposite in2="SourceAlpha" operator="in" result="effect1_backgroundBlur_4487_38921"/>
<feBlend mode="normal" in="SourceGraphic" in2="effect1_backgroundBlur_4487_38921" result="shape"/>
</filter>
<filter id="filter1_b_4487_38921" x="-193.419" y="-102.088" width="726.635" height="726.635" filterUnits="userSpaceOnUse" color-interpolation-filters="sRGB">
<feFlood flood-opacity="0" result="BackgroundImageFix"/>
<feGaussianBlur in="BackgroundImageFix" stdDeviation="105.482"/>
<feComposite in2="SourceAlpha" operator="in" result="effect1_backgroundBlur_4487_38921"/>
<feBlend mode="normal" in="SourceGraphic" in2="effect1_backgroundBlur_4487_38921" result="shape"/>
</filter>
<filter id="filter2_dd_4487_38921" x="57.4741" y="157.245" width="238.917" height="180.64" filterUnits="userSpaceOnUse" color-interpolation-filters="sRGB">
<feFlood flood-opacity="0" result="BackgroundImageFix"/>
<feColorMatrix in="SourceAlpha" type="matrix" values="0 0 0 0 0 0 0 0 0 0 0 0 0 0 0 0 0 0 127 0" result="hardAlpha"/>
<feOffset dy="3.05353"/>
<feGaussianBlur stdDeviation="2.29015"/>
<feColorMatrix type="matrix" values="0 0 0 0 0.0666667 0 0 0 0 0.0941176 0 0 0 0 0.152941 0 0 0 0.03 0"/>
<feBlend mode="normal" in2="BackgroundImageFix" result="effect1_dropShadow_4487_38921"/>
<feColorMatrix in="SourceAlpha" type="matrix" values="0 0 0 0 0 0 0 0 0 0 0 0 0 0 0 0 0 0 127 0" result="hardAlpha"/>
<feOffset dy="7.63383"/>
<feGaussianBlur stdDeviation="5.72537"/>
<feColorMatrix type="matrix" values="0 0 0 0 0.0666667 0 0 0 0 0.0941176 0 0 0 0 0.152941 0 0 0 0.05 0"/>
<feBlend mode="normal" in2="effect1_dropShadow_4487_38921" result="effect2_dropShadow_4487_38921"/>
<feBlend mode="normal" in="SourceGraphic" in2="effect2_dropShadow_4487_38921" result="shape"/>
</filter>
<filter id="filter3_dd_4487_38921" x="30.2787" y="215.522" width="85.8412" height="136.349" filterUnits="userSpaceOnUse" color-interpolation-filters="sRGB">
<feFlood flood-opacity="0" result="BackgroundImageFix"/>
<feColorMatrix in="SourceAlpha" type="matrix" values="0 0 0 0 0 0 0 0 0 0 0 0 0 0 0 0 0 0 127 0" result="hardAlpha"/>
<feOffset dy="3.05353"/>
<feGaussianBlur stdDeviation="2.29015"/>
<feColorMatrix type="matrix" values="0 0 0 0 0.0666667 0 0 0 0 0.0941176 0 0 0 0 0.152941 0 0 0 0.03 0"/>
<feBlend mode="normal" in2="BackgroundImageFix" result="effect1_dropShadow_4487_38921"/>
<feColorMatrix in="SourceAlpha" type="matrix" values="0 0 0 0 0 0 0 0 0 0 0 0 0 0 0 0 0 0 127 0" result="hardAlpha"/>
<feOffset dy="7.63383"/>
<feGaussianBlur stdDeviation="5.72537"/>
<feColorMatrix type="matrix" values="0 0 0 0 0.0666667 0 0 0 0 0.0941176 0 0 0 0 0.152941 0 0 0 0.05 0"/>
<feBlend mode="normal" in2="effect1_dropShadow_4487_38921" result="effect2_dropShadow_4487_38921"/>
<feBlend mode="normal" in="SourceGraphic" in2="effect2_dropShadow_4487_38921" result="shape"/>
</filter>
<filter id="filter4_dd_4487_38921" x="156.544" y="262.66" width="160.321" height="118.343" filterUnits="userSpaceOnUse" color-interpolation-filters="sRGB">
<feFlood flood-opacity="0" result="BackgroundImageFix"/>
<feColorMatrix in="SourceAlpha" type="matrix" values="0 0 0 0 0 0 0 0 0 0 0 0 0 0 0 0 0 0 127 0" result="hardAlpha"/>
<feOffset dy="3.05353"/>
<feGaussianBlur stdDeviation="2.29015"/>
<feColorMatrix type="matrix" values="0 0 0 0 0.0666667 0 0 0 0 0.0941176 0 0 0 0 0.152941 0 0 0 0.03 0"/>
<feBlend mode="normal" in2="BackgroundImageFix" result="effect1_dropShadow_4487_38921"/>
<feColorMatrix in="SourceAlpha" type="matrix" values="0 0 0 0 0 0 0 0 0 0 0 0 0 0 0 0 0 0 127 0" result="hardAlpha"/>
<feOffset dy="7.63383"/>
<feGaussianBlur stdDeviation="5.72537"/>
<feColorMatrix type="matrix" values="0 0 0 0 0.0666667 0 0 0 0 0.0941176 0 0 0 0 0.152941 0 0 0 0.05 0"/>
<feBlend mode="normal" in2="effect1_dropShadow_4487_38921" result="effect2_dropShadow_4487_38921"/>
<feBlend mode="normal" in="SourceGraphic" in2="effect2_dropShadow_4487_38921" result="shape"/>
</filter>
<filter id="filter5_dd_4487_38921" x="162.374" y="172.01" width="154.22" height="57.0909" filterUnits="userSpaceOnUse" color-interpolation-filters="sRGB">
<feFlood flood-opacity="0" result="BackgroundImageFix"/>
<feColorMatrix in="SourceAlpha" type="matrix" values="0 0 0 0 0 0 0 0 0 0 0 0 0 0 0 0 0 0 127 0" result="hardAlpha"/>
<feOffset dy="3.05353"/>
<feGaussianBlur stdDeviation="2.29015"/>
<feColorMatrix type="matrix" values="0 0 0 0 0.0666667 0 0 0 0 0.0941176 0 0 0 0 0.152941 0 0 0 0.03 0"/>
<feBlend mode="normal" in2="BackgroundImageFix" result="effect1_dropShadow_4487_38921"/>
<feColorMatrix in="SourceAlpha" type="matrix" values="0 0 0 0 0 0 0 0 0 0 0 0 0 0 0 0 0 0 127 0" result="hardAlpha"/>
<feOffset dy="7.63383"/>
<feGaussianBlur stdDeviation="5.72537"/>
<feColorMatrix type="matrix" values="0 0 0 0 0.0666667 0 0 0 0 0.0941176 0 0 0 0 0.152941 0 0 0 0.05 0"/>
<feBlend mode="normal" in2="effect1_dropShadow_4487_38921" result="effect2_dropShadow_4487_38921"/>
<feBlend mode="normal" in="SourceGraphic" in2="effect2_dropShadow_4487_38921" result="shape"/>
</filter>
<linearGradient id="paint0_linear_4487_38921" x1="298.309" y1="475.666" x2="298.309" y2="0" gradientUnits="userSpaceOnUse">
<stop stop-color="#D8DFF5"/>
<stop offset="1" stop-color="#EAEFFE" stop-opacity="0"/>
</linearGradient>
<clipPath id="clip0_4487_38921">
<rect width="346" height="475" fill="white"/>
</clipPath>
<clipPath id="clip1_4487_38921">
<rect x="68.9248" y="161.062" width="216.016" height="157.738" rx="6.29839" fill="white"/>
</clipPath>
<clipPath id="clip2_4487_38921">
<rect width="5.28104" height="5.28104" fill="white" transform="translate(233.391 309.988)"/>
</clipPath>
<clipPath id="clip3_4487_38921">
<rect x="69.7031" y="233.327" width="6.99331" height="85.4738" rx="3.49665" fill="white"/>
</clipPath>
<clipPath id="clip4_4487_38921">
<rect x="86.0195" y="233.327" width="6.99331" height="85.4738" rx="3.49665" fill="white"/>
</clipPath>
<clipPath id="clip5_4487_38921">
<rect x="53.3855" y="233.327" width="6.99331" height="85.4738" rx="3.49665" fill="white"/>
</clipPath>
</defs>
</svg>
